# xmcd
# 
# Track frame offsets:
#     150
#     17467
#     33670
#     56237
#     81127
#     110882
#     139735
# 
# Disc length: 2189
# 
# Revision: 1
# Processed by: cddbd v1.5.2PL0 Copyright (c) Steve Scherf et al.
# Submitted via: fre:ac v1.0.31
# 
DISCID=5d088b07
DTITLE=Body Heat - Gonna Make U Feel
DYEAR=1996
DGENRE=House
TTITLE0=Gonna Make U Feel [Floating Radio Edit]
TTITLE1=Gonna Make U Feel [Attack The Bass Radio Edit]
TTITLE2=Gonna Make U Feel [Floating Club Mix]
TTITLE3=Gonna Make U Feel [Remix 2]
TTITLE4=Gonna Make U Feel [Remix 1]
TTITLE5=Gonna Make U Feel [Attack The Bass Long Version]
TTITLE6=Gonna Make U Feel [Flamengo Mix]
EXTD=
EXTT0=
EXTT1=
EXTT2=
EXTT3=
EXTT4=
EXTT5=
EXTT6=
PLAYORDER=
